<svg xmlns="http://www.w3.org/2000/svg" viewBox="0 0 280 220" fill="none" aria-hidden="true">
  <defs>
    <linearGradient id="pf-slate" x1="0%" y1="0%" x2="100%" y2="100%">
      <stop offset="0%" stop-color="#94a3b8" stop-opacity="0.65"/>
      <stop offset="100%" stop-color="#64748b" stop-opacity="0.3"/>
    </linearGradient>
  </defs>
  <!-- Researcher silhouette -->
  <circle cx="120" cy="68" r="32" stroke="url(#pf-slate)" stroke-width="2" opacity="0.55"/>
  <circle cx="120" cy="64" r="12" fill="#94a3b8" opacity="0.35"/>
  <path d="M120 100c-24 0-44 12-44 26v20h88v-20c0-14-20-26-44-26z" stroke="#94a3b8" stroke-width="2" opacity="0.52"/>
  <!-- Publication nodes -->
  <rect x="176" y="44" width="64" height="48" rx="5" stroke="#94a3b8" stroke-width="1.5" opacity="0.45"/>
  <path d="M188 58h40M188 70h32M188 82h24" stroke="#94a3b8" stroke-width="1" opacity="0.35"/>
  <circle cx="184" cy="54" r="3" fill="#64748b" opacity="0.4"/>
  <!-- Skills radar -->
  <polygon points="48,140 72,120 96,132 88,160 56,156" stroke="#94a3b8" stroke-width="1.2" fill="#94a3b8" fill-opacity="0.12" opacity="0.48"/>
  <polygon points="56,148 68,134 80,140 76,154 60,152" stroke="#64748b" stroke-width="1" fill="#64748b" fill-opacity="0.15" opacity="0.42"/>
  <circle cx="72" cy="140" r="2" fill="#94a3b8" opacity="0.45"/>
  <!-- ORCID / identity link -->
  <circle cx="200" cy="140" r="18" stroke="#94a3b8" stroke-width="1.5" opacity="0.42"/>
  <path d="M192 140h16M200 132v16" stroke="#94a3b8" stroke-width="1.5" opacity="0.4"/>
  <!-- Lab affiliation badge -->
  <rect x="40" y="176" width="96" height="28" rx="14" stroke="#94a3b8" stroke-width="1.2" opacity="0.4"/>
  <text x="88" y="194" text-anchor="middle" fill="#94a3b8" font-size="7" font-weight="600" opacity="0.5" font-family="system-ui,sans-serif">Färkkilä Lab</text>
  <!-- Connection to research network -->
  <path d="M152 80l24-16M152 96l32 8M152 112l28 20" stroke="#94a3b8" stroke-width="1" opacity="0.32" stroke-dasharray="4 3"/>
  <circle cx="240" cy="64" r="5" fill="#94a3b8" opacity="0.38"/>
  <circle cx="248" cy="104" r="4" fill="#64748b" opacity="0.35"/>
  <circle cx="236" cy="132" r="5" fill="#94a3b8" opacity="0.36"/>
</svg>
