<svg xmlns="http://www.w3.org/2000/svg" viewBox="0 0 360 240" fill="none" aria-hidden="true">
  <defs>
    <linearGradient id="pw-teal" x1="0%" y1="0%" x2="100%" y2="100%">
      <stop offset="0%" stop-color="#2dd4bf" stop-opacity="0.7"/>
      <stop offset="100%" stop-color="#06b6d4" stop-opacity="0.25"/>
    </linearGradient>
    <radialGradient id="pw-glow" cx="70%" cy="45%" r="55%">
      <stop offset="0%" stop-color="#14b8a6" stop-opacity="0.22"/>
      <stop offset="100%" stop-color="#14b8a6" stop-opacity="0"/>
    </radialGradient>
  </defs>
  <rect width="360" height="240" fill="url(#pw-glow)"/>
  <!-- Microscopy grid -->
  <g opacity="0.18" stroke="#2dd4bf" stroke-width="0.6">
    <path d="M200 20h160M200 60h160M200 100h160M200 140h160M200 180h160M200 220h160"/>
    <path d="M200 20v200M240 20v200M280 20v200M320 20v200M360 20v200"/>
  </g>
  <!-- Spatial cell cluster -->
  <circle cx="268" cy="88" r="28" stroke="url(#pw-teal)" stroke-width="1.4" opacity="0.55"/>
  <circle cx="248" cy="108" r="14" fill="#2dd4bf" fill-opacity="0.12" stroke="#2dd4bf" stroke-width="1" stroke-opacity="0.4"/>
  <circle cx="292" cy="102" r="10" fill="#06b6d4" opacity="0.14"/>
  <circle cx="276" cy="72" r="8" fill="#5eead4" opacity="0.16"/>
  <circle cx="304" cy="118" r="7" fill="#2dd4bf" opacity="0.12"/>
  <!-- Team network nodes -->
  <path d="M228 168c24-18 48-12 72 4s44 28 60 12" stroke="#2dd4bf" stroke-width="1.2" opacity="0.38" stroke-dasharray="4 5"/>
  <path d="M252 152l36 28M288 132l44 36M236 176l52-20" stroke="#06b6d4" stroke-width="1" opacity="0.32"/>
  <circle cx="228" cy="168" r="9" fill="#14b8a6" opacity="0.28" stroke="#2dd4bf" stroke-width="1.2"/>
  <circle cx="252" cy="152" r="7" fill="#2dd4bf" opacity="0.24"/>
  <circle cx="288" cy="132" r="8" fill="#06b6d4" opacity="0.26" stroke="#5eead4" stroke-width="1"/>
  <circle cx="324" cy="148" r="7" fill="#2dd4bf" opacity="0.22"/>
  <circle cx="300" cy="180" r="9" fill="#14b8a6" opacity="0.3" stroke="#2dd4bf" stroke-width="1.2"/>
  <circle cx="336" cy="168" r="6" fill="#5eead4" opacity="0.2"/>
  <!-- Protein marker arcs (CycIF hint) -->
  <path d="M310 56a18 18 0 0 1 0 36" stroke="#ec4899" stroke-width="1" opacity="0.28"/>
  <path d="M318 62a12 12 0 0 1 0 24" stroke="#8b5cf6" stroke-width="0.9" opacity="0.25"/>
  <path d="M326 68a8 8 0 0 1 0 16" stroke="#3b82f6" stroke-width="0.8" opacity="0.22"/>
  <!-- DNA helix suggestion -->
  <path d="M212 44c8 12 8 28 0 40s-8 28 0 40" stroke="#60a5fa" stroke-width="1" opacity="0.22"/>
  <path d="M224 44c-8 12-8 28 0 40s8 28 0 40" stroke="#60a5fa" stroke-width="1" opacity="0.22"/>
</svg>
