<svg xmlns="http://www.w3.org/2000/svg" viewBox="0 0 280 220" fill="none" aria-hidden="true">
  <defs>
    <linearGradient id="ai-violet" x1="0%" y1="0%" x2="100%" y2="100%">
      <stop offset="0%" stop-color="#a78bfa" stop-opacity="0.7"/>
      <stop offset="100%" stop-color="#6366f1" stop-opacity="0.35"/>
    </linearGradient>
    <radialGradient id="ai-core" cx="50%" cy="50%" r="50%">
      <stop offset="0%" stop-color="#818cf8" stop-opacity="0.55"/>
      <stop offset="100%" stop-color="#6366f1" stop-opacity="0"/>
    </radialGradient>
  </defs>
  <!-- Neural network hub -->
  <circle cx="120" cy="96" r="48" stroke="url(#ai-violet)" stroke-width="2" opacity="0.48"/>
  <circle cx="120" cy="96" r="20" fill="url(#ai-core)" opacity="0.65"/>
  <circle cx="120" cy="96" r="8" fill="#818cf8" opacity="0.5"/>
  <!-- Input nodes -->
  <circle cx="56" cy="48" r="10" fill="#a78bfa" opacity="0.38" stroke="#c4b5fd" stroke-width="1.2"/>
  <circle cx="184" cy="48" r="10" fill="#a78bfa" opacity="0.38" stroke="#c4b5fd" stroke-width="1.2"/>
  <circle cx="40" cy="120" r="10" fill="#818cf8" opacity="0.34" stroke="#a78bfa" stroke-width="1.2"/>
  <circle cx="200" cy="120" r="10" fill="#818cf8" opacity="0.34" stroke="#a78bfa" stroke-width="1.2"/>
  <circle cx="72" cy="168" r="10" fill="#a78bfa" opacity="0.36" stroke="#c4b5fd" stroke-width="1.2"/>
  <circle cx="168" cy="168" r="10" fill="#a78bfa" opacity="0.36" stroke="#c4b5fd" stroke-width="1.2"/>
  <!-- Synaptic connections -->
  <path d="M56 48l40 36M184 48l-40 36M40 120l56-16M200 120l-56-16M72 168l32-56M168 168l-32-56" stroke="#a78bfa" stroke-width="1.5" opacity="0.42"/>
  <path d="M66 58l36 28M174 58l-36 28M50 112l52-8M190 112l-52-8" stroke="#818cf8" stroke-width="0.8" opacity="0.3"/>
  <!-- RAG document chunks -->
  <rect x="196" y="36" width="56" height="40" rx="4" stroke="#a78bfa" stroke-width="1.2" opacity="0.42"/>
  <path d="M204 48h40M204 58h32M204 68h24" stroke="#a78bfa" stroke-width="0.8" opacity="0.35"/>
  <rect x="204" y="44" width="8" height="8" rx="1" fill="#818cf8" opacity="0.35"/>
  <!-- Embedding vectors -->
  <rect x="28" y="36" width="48" height="32" rx="4" stroke="#a78bfa" stroke-width="1" opacity="0.38"/>
  <path d="M36 48h8v16h-8zM48 44h8v20h-8zM60 52h8v12h-8z" fill="#818cf8" opacity="0.32"/>
  <!-- Retrieval arrows -->
  <path d="M76 52l16 28M76 52c-8 4-16 8-20 16" stroke="#a78bfa" stroke-width="1" opacity="0.35" stroke-dasharray="3 3"/>
  <path d="M220 56l-28 28" stroke="#818cf8" stroke-width="1.2" opacity="0.38"/>
  <!-- Hybrid search lens -->
  <circle cx="220" cy="168" r="20" stroke="#a78bfa" stroke-width="1.5" opacity="0.45"/>
  <path d="M234 182l12 12" stroke="#a78bfa" stroke-width="2" stroke-linecap="round" opacity="0.5"/>
  <circle cx="220" cy="168" r="8" stroke="#818cf8" stroke-width="1" opacity="0.38"/>
  <!-- Grounded answer pulse -->
  <circle cx="120" cy="96" r="32" stroke="#6366f1" stroke-width="0.8" opacity="0.25"/>
  <circle cx="120" cy="96" r="40" stroke="#818cf8" stroke-width="0.6" opacity="0.18"/>
</svg>
