<svg xmlns="http://www.w3.org/2000/svg" viewBox="0 0 280 220" fill="none" aria-hidden="true">
  <defs>
    <linearGradient id="mt-sky" x1="0%" y1="0%" x2="100%" y2="100%">
      <stop offset="0%" stop-color="#38bdf8" stop-opacity="0.65"/>
      <stop offset="100%" stop-color="#0284c7" stop-opacity="0.3"/>
    </linearGradient>
  </defs>
  <!-- Calendar grid -->
  <rect x="48" y="36" width="144" height="120" rx="8" stroke="url(#mt-sky)" stroke-width="2" opacity="0.52"/>
  <path d="M48 64h144" stroke="#38bdf8" stroke-width="1.5" opacity="0.42"/>
  <circle cx="68" cy="50" r="4" fill="#38bdf8" opacity="0.48"/>
  <circle cx="84" cy="50" r="4" fill="#38bdf8" opacity="0.38"/>
  <circle cx="100" cy="50" r="4" fill="#0ea5e9" opacity="0.42"/>
  <!-- Week cells -->
  <rect x="60" y="76" width="24" height="20" rx="3" stroke="#38bdf8" stroke-width="1.2" opacity="0.38"/>
  <rect x="92" y="76" width="24" height="20" rx="3" stroke="#38bdf8" stroke-width="1.2" opacity="0.35"/>
  <rect x="124" y="76" width="24" height="20" rx="3" fill="#38bdf8" fill-opacity="0.22" stroke="#38bdf8" stroke-width="1.2"/>
  <rect x="156" y="76" width="24" height="20" rx="3" stroke="#38bdf8" stroke-width="1.2" opacity="0.38"/>
  <rect x="60" y="104" width="24" height="20" rx="3" stroke="#38bdf8" stroke-width="1.2" opacity="0.35"/>
  <rect x="92" y="104" width="24" height="20" rx="3" stroke="#38bdf8" stroke-width="1.2" opacity="0.32"/>
  <rect x="124" y="104" width="24" height="20" rx="3" stroke="#38bdf8" stroke-width="1.2" opacity="0.38"/>
  <rect x="156" y="104" width="24" height="20" rx="3" fill="#0ea5e9" fill-opacity="0.2" stroke="#38bdf8" stroke-width="1.2"/>
  <rect x="60" y="132" width="24" height="20" rx="3" stroke="#38bdf8" stroke-width="1.2" opacity="0.32"/>
  <rect x="92" y="132" width="24" height="20" rx="3" stroke="#38bdf8" stroke-width="1.2" opacity="0.35"/>
  <rect x="124" y="132" width="24" height="20" rx="3" stroke="#38bdf8" stroke-width="1.2" opacity="0.3"/>
  <rect x="156" y="132" width="24" height="20" rx="3" stroke="#38bdf8" stroke-width="1.2" opacity="0.32"/>
  <!-- Collaboration avatars -->
  <circle cx="212" cy="72" r="14" stroke="#38bdf8" stroke-width="1.5" opacity="0.45"/>
  <circle cx="212" cy="68" r="5" fill="#38bdf8" opacity="0.35"/>
  <path d="M200 88c4-8 12-12 12-12s8 4 12 12" stroke="#38bdf8" stroke-width="1.2" opacity="0.38"/>
  <circle cx="244" cy="88" r="12" stroke="#0ea5e9" stroke-width="1.2" opacity="0.4"/>
  <circle cx="244" cy="84" r="4" fill="#38bdf8" opacity="0.32"/>
  <circle cx="228" cy="120" r="11" stroke="#38bdf8" stroke-width="1.2" opacity="0.38"/>
  <!-- Video call frame -->
  <rect x="200" y="140" width="56" height="40" rx="5" stroke="#38bdf8" stroke-width="1.2" opacity="0.4"/>
  <path d="M208 156h40M216 168l8-6 8 6" stroke="#38bdf8" stroke-width="1" opacity="0.32"/>
  <!-- Booking confirmation -->
  <path d="M48 176l24-16 20 12 32-24 28 20" stroke="#38bdf8" stroke-width="2" stroke-linecap="round" stroke-linejoin="round" opacity="0.45"/>
  <circle cx="152" cy="168" r="14" stroke="#38bdf8" stroke-width="1.5" opacity="0.48"/>
  <path d="M144 168l6 6 12-12" stroke="#38bdf8" stroke-width="2" stroke-linecap="round" stroke-linejoin="round" opacity="0.55"/>
  <!-- Team sync pulse -->
  <circle cx="136" cy="88" r="4" fill="#0ea5e9" opacity="0.5"/>
  <circle cx="136" cy="88" r="8" stroke="#38bdf8" stroke-width="0.8" opacity="0.25"/>
</svg>
