<svg xmlns="http://www.w3.org/2000/svg" viewBox="0 0 280 220" fill="none" aria-hidden="true">
  <defs>
    <linearGradient id="ord-amber" x1="0%" y1="0%" x2="100%" y2="100%">
      <stop offset="0%" stop-color="#fbbf24" stop-opacity="0.7"/>
      <stop offset="100%" stop-color="#d97706" stop-opacity="0.35"/>
    </linearGradient>
  </defs>
  <!-- Purchase order document -->
  <rect x="48" y="32" width="120" height="152" rx="8" stroke="url(#ord-amber)" stroke-width="2" opacity="0.58"/>
  <path d="M68 60h80M68 84h80M68 108h56M68 132h72" stroke="#fbbf24" stroke-width="1.8" stroke-linecap="round" opacity="0.48"/>
  <rect x="68" y="148" width="40" height="24" rx="3" stroke="#fbbf24" stroke-width="1.2" opacity="0.4"/>
  <!-- Reagent box -->
  <rect x="176" y="48" width="64" height="56" rx="5" stroke="#fbbf24" stroke-width="1.8" opacity="0.55"/>
  <path d="M176 68h64M192 48v56M224 48v56" stroke="#fbbf24" stroke-width="1" opacity="0.38"/>
  <circle cx="208" cy="76" r="8" stroke="#f59e0b" stroke-width="1.2" opacity="0.45"/>
  <path d="M204 76h8M208 72v8" stroke="#f59e0b" stroke-width="1.2" opacity="0.5"/>
  <!-- Pipette tip rack -->
  <rect x="180" y="120" width="72" height="40" rx="4" stroke="#fbbf24" stroke-width="1.5" opacity="0.48"/>
  <circle cx="196" cy="140" r="3" fill="#fbbf24" opacity="0.42"/>
  <circle cx="212" cy="140" r="3" fill="#fbbf24" opacity="0.38"/>
  <circle cx="228" cy="140" r="3" fill="#fbbf24" opacity="0.4"/>
  <circle cx="244" cy="140" r="3" fill="#fbbf24" opacity="0.35"/>
  <!-- Shipment tracking -->
  <path d="M36 176c24-16 48-8 72 0s48 8 72 0 48-8 72 0" stroke="#fbbf24" stroke-width="1.5" opacity="0.38" stroke-dasharray="6 4"/>
  <rect x="32" y="184" width="48" height="24" rx="4" stroke="#fbbf24" stroke-width="1.2" opacity="0.42"/>
  <path d="M40 196h32M48 188v16" stroke="#fbbf24" stroke-width="1" opacity="0.35"/>
  <!-- Approval check -->
  <circle cx="148" cy="52" r="16" stroke="#fbbf24" stroke-width="1.5" opacity="0.5"/>
  <path d="M140 52l6 6 12-12" stroke="#fbbf24" stroke-width="2.2" stroke-linecap="round" stroke-linejoin="round" opacity="0.6"/>
  <!-- Antibody vial -->
  <rect x="56" y="168" width="20" height="36" rx="3" stroke="#f59e0b" stroke-width="1.2" opacity="0.45"/>
  <ellipse cx="66" cy="168" rx="10" ry="3" fill="#fbbf24" opacity="0.35"/>
  <path d="M62 180h8M62 188h8" stroke="#f59e0b" stroke-width="0.8" opacity="0.35"/>
</svg>
