<svg xmlns="http://www.w3.org/2000/svg" viewBox="0 0 280 220" fill="none" aria-hidden="true">
  <defs>
    <linearGradient id="ov-rose" x1="0%" y1="0%" x2="100%" y2="100%">
      <stop offset="0%" stop-color="#f0abce" stop-opacity="0.7"/>
      <stop offset="100%" stop-color="#c45c8a" stop-opacity="0.35"/>
    </linearGradient>
    <radialGradient id="ov-glow" cx="50%" cy="50%" r="50%">
      <stop offset="0%" stop-color="#f472b6" stop-opacity="0.45"/>
      <stop offset="100%" stop-color="#f472b6" stop-opacity="0"/>
    </radialGradient>
  </defs>
  <!-- Spatial atlas grid -->
  <rect x="32" y="28" width="128" height="96" rx="4" stroke="#f0abce" stroke-width="1.2" opacity="0.38"/>
  <path d="M32 52h128M32 76h128M32 100h128M64 28v96M96 28v96M128 28v96M160 28v96" stroke="#f0abce" stroke-width="0.7" opacity="0.28"/>
  <!-- Tissue spots (Visium-style) -->
  <circle cx="80" cy="64" r="5" fill="#f472b6" opacity="0.42"/>
  <circle cx="112" cy="64" r="5" fill="#fb7185" opacity="0.38"/>
  <circle cx="144" cy="64" r="5" fill="#fda4af" opacity="0.35"/>
  <circle cx="80" cy="88" r="5" fill="#e879f9" opacity="0.4"/>
  <circle cx="112" cy="88" r="6" fill="#f472b6" opacity="0.52"/>
  <circle cx="144" cy="88" r="5" fill="#fb7185" opacity="0.36"/>
  <circle cx="80" cy="112" r="5" fill="#fda4af" opacity="0.34"/>
  <circle cx="112" cy="112" r="5" fill="#f472b6" opacity="0.4"/>
  <circle cx="144" cy="112" r="5" fill="#e879f9" opacity="0.38"/>
  <!-- TLS / immune node cluster -->
  <circle cx="200" cy="72" r="28" stroke="url(#ov-rose)" stroke-width="1.5" opacity="0.55"/>
  <circle cx="200" cy="72" r="16" fill="url(#ov-glow)" opacity="0.6"/>
  <circle cx="188" cy="64" r="5" fill="#f0abce" opacity="0.5"/>
  <circle cx="212" cy="64" r="4" fill="#fda4af" opacity="0.45"/>
  <circle cx="192" cy="84" r="4" fill="#f472b6" opacity="0.42"/>
  <circle cx="208" cy="82" r="5" fill="#fb7185" opacity="0.48"/>
  <circle cx="200" cy="72" r="6" fill="#f0abce" opacity="0.55"/>
  <!-- Lab flask -->
  <path d="M168 140h32l-6 52c-1.5 14-10 22-10 22s-8.5-8-10-22l-6-52h0z" stroke="#f0abce" stroke-width="1.8" opacity="0.55"/>
  <path d="M172 140h24" stroke="#f0abce" stroke-width="1.5" opacity="0.45"/>
  <ellipse cx="184" cy="198" rx="14" ry="4" fill="#f472b6" opacity="0.3"/>
  <path d="M176 156c4 8 8 12 8 20" stroke="#fda4af" stroke-width="1" opacity="0.4"/>
  <!-- Orbital rings — spatial atlas motif -->
  <ellipse cx="96" cy="168" rx="52" ry="18" stroke="#f0abce" stroke-width="1" opacity="0.32" transform="rotate(-18 96 168)"/>
  <ellipse cx="96" cy="168" rx="38" ry="13" stroke="#f472b6" stroke-width="0.8" opacity="0.28" transform="rotate(12 96 168)"/>
  <circle cx="56" cy="48" r="3" fill="#f0abce" opacity="0.5"/>
  <circle cx="220" cy="148" r="3" fill="#fda4af" opacity="0.45"/>
  <path d="M56 48l24 20M220 148l-36-28" stroke="#f0abce" stroke-width="0.6" opacity="0.3" stroke-dasharray="3 3"/>
</svg>
