<svg xmlns="http://www.w3.org/2000/svg" viewBox="0 0 280 220" fill="none" aria-hidden="true">
  <defs>
    <linearGradient id="wl-green" x1="0%" y1="0%" x2="100%" y2="100%">
      <stop offset="0%" stop-color="#4ade80" stop-opacity="0.65"/>
      <stop offset="100%" stop-color="#16a34a" stop-opacity="0.3"/>
    </linearGradient>
  </defs>
  <!-- Microscope -->
  <rect x="168" y="48" width="72" height="16" rx="3" stroke="#4ade80" stroke-width="1.5" opacity="0.5"/>
  <path d="M192 64v32M216 64v32" stroke="#4ade80" stroke-width="2" opacity="0.45"/>
  <ellipse cx="204" cy="104" rx="28" ry="10" stroke="#4ade80" stroke-width="1.8" opacity="0.48"/>
  <circle cx="204" cy="96" r="12" stroke="#4ade80" stroke-width="1.5" opacity="0.42"/>
  <circle cx="204" cy="96" r="5" fill="#4ade80" opacity="0.35"/>
  <rect x="188" y="112" width="32" height="8" rx="2" fill="#4ade80" opacity="0.28"/>
  <!-- Pipette -->
  <path d="M88 36h48l-8 96c-2 20-14 36-16 36s-14-16-16-36L88 36z" stroke="url(#wl-green)" stroke-width="2" opacity="0.58"/>
  <path d="M96 36h32" stroke="#4ade80" stroke-width="1.8" opacity="0.48"/>
  <ellipse cx="112" cy="176" rx="18" ry="5" fill="#4ade80" opacity="0.3"/>
  <path d="M104 120c4 16 8 28 8 40" stroke="#22c55e" stroke-width="1.2" opacity="0.38"/>
  <!-- Sample tube rack -->
  <rect x="40" y="120" width="48" height="64" rx="4" stroke="#4ade80" stroke-width="1.5" opacity="0.45"/>
  <rect x="48" y="132" width="10" height="40" rx="2" stroke="#4ade80" stroke-width="1" opacity="0.38"/>
  <rect x="62" y="132" width="10" height="40" rx="2" stroke="#4ade80" stroke-width="1" opacity="0.35"/>
  <rect x="76" y="132" width="10" height="40" rx="2" fill="#4ade80" opacity="0.22" stroke="#4ade80" stroke-width="1"/>
  <!-- QC chart -->
  <path d="M48 88l20-12 16 8 24-20 32 16" stroke="#4ade80" stroke-width="2" stroke-linecap="round" stroke-linejoin="round" opacity="0.48"/>
  <path d="M40 96h120" stroke="#4ade80" stroke-width="1" opacity="0.28"/>
  <circle cx="68" cy="76" r="3" fill="#4ade80" opacity="0.45"/>
  <circle cx="108" cy="68" r="3" fill="#22c55e" opacity="0.42"/>
  <circle cx="140" cy="84" r="3" fill="#4ade80" opacity="0.4"/>
  <!-- SOP document -->
  <rect x="200" y="140" width="48" height="56" rx="4" stroke="#4ade80" stroke-width="1.2" opacity="0.38"/>
  <path d="M212 156h24M212 168h24M212 180h16" stroke="#4ade80" stroke-width="1" opacity="0.32"/>
</svg>
